<svg width="300" height="300" viewBox="0 0 300 300" fill="none" xmlns="http://www.w3.org/2000/svg">
<g clip-path="url(#clip0_2460_760)">
<path d="M300 150C300 67.1573 232.843 0 150 0C67.1573 0 0 67.1573 0 150C0 232.843 67.1573 300 150 300C232.843 300 300 232.843 300 150Z" fill="#02211E"/>
<path d="M125.332 85.0126C99.429 77.5947 70.0994 100.679 59.8257 136.573C49.5519 172.463 62.2236 207.568 88.1265 214.986C114.029 222.403 143.359 199.319 153.633 163.425C163.906 127.536 151.235 92.4301 125.332 85.0126ZM120.968 118.728C120.355 126.156 113.832 131.682 106.404 131.063C98.9761 130.451 93.4498 123.928 94.0682 116.5C94.6811 109.072 101.203 103.546 108.631 104.164C116.06 104.777 121.586 111.299 120.968 118.728Z" fill="white"/>
<path d="M218.864 113.052C198.636 107.265 175.738 125.287 167.718 153.311C159.698 181.334 169.589 208.746 189.817 214.533C210.045 220.325 232.942 202.298 240.962 174.274C248.982 146.25 239.092 118.839 218.864 113.052ZM215.885 145.494C215.272 152.921 208.75 158.448 201.321 157.829C193.893 157.216 188.367 150.694 188.986 143.266C189.603 135.838 196.121 130.312 203.549 130.93C210.977 131.543 216.503 138.065 215.885 145.494Z" fill="white"/>
</g>
<defs>
<clipPath id="clip0_2460_760">
<rect width="300" height="300" fill="white"/>
</clipPath>
</defs>
</svg>
